{
  "version": "1.1.6",
  "modules": [
    {
      "id": 3,
      "plugin": "Fundamental",
      "version": "1.4.0",
      "model": "VCO",
      "params": [
        {
          "id": 0,
          "value": 0.0
        },
        {
          "id": 1,
          "value": 0.0
        },
        {
          "id": 2,
          "value": -1.61972427
        },
        {
          "id": 3,
          "value": -0.77700001
        },
        {
          "id": 4,
          "value": 0.0
        },
        {
          "id": 5,
          "value": 0.496569902
        },
        {
          "id": 6,
          "value": 0.0
        }
      ],
      "pos": [
        8,
        1
      ]
    },
    {
      "id": 10,
      "plugin": "Fundamental",
      "version": "1.4.0",
      "model": "VCA",
      "params": [
        {
          "id": 0,
          "value": 0.483999938
        },
        {
          "id": 1,
          "value": 0.508000016
        }
      ],
      "pos": [
        37,
        0
      ]
    },
    {
      "id": 12,
      "plugin": "Core",
      "version": "1.1.6",
      "model": "AudioInterface",
      "params": [],
      "rightModuleId": 19,
      "data": {
        "audio": {
          "driver": 8,
          "deviceName": "Default Device",
          "offset": 0,
          "maxChannels": 8,
          "sampleRate": 22050,
          "blockSize": 512
        }
      },
      "pos": [
        44,
        0
      ]
    },
    {
      "id": 13,
      "plugin": "Fundamental",
      "version": "1.4.0",
      "model": "Scope",
      "params": [
        {
          "id": 0,
          "value": -0.0
        },
        {
          "id": 1,
          "value": 0.060000211
        },
        {
          "id": 2,
          "value": 0.0
        },
        {
          "id": 3,
          "value": -0.119999886
        },
        {
          "id": 4,
          "value": 13.8399992
        },
        {
          "id": 5,
          "value": 0.0
        },
        {
          "id": 6,
          "value": -0.119999558
        },
        {
          "id": 7,
          "value": 0.0
        }
      ],
      "data": {
        "lissajous": 0,
        "external": 0
      },
      "pos": [
        39,
        1
      ]
    },
    {
      "id": 14,
      "plugin": "Core",
      "version": "1.1.6",
      "model": "MIDIToCVInterface",
      "params": [],
      "data": {
        "channels": 1,
        "polyMode": 0,
        "clockDivision": 24,
        "lastPitch": 8192,
        "lastMod": 0,
        "midi": {
          "driver": -11,
          "deviceName": "QWERTY keyboard (US)",
          "channel": -1
        }
      },
      "pos": [
        0,
        0
      ]
    },
    {
      "id": 15,
      "plugin": "VCV-Recorder",
      "version": "1.1.0",
      "model": "Recorder",
      "params": [
        {
          "id": 0,
          "value": 0.999999821
        },
        {
          "id": 1,
          "value": 0.0
        }
      ],
      "data": {
        "format": "wav",
        "path": "C:\\Users\\vladi\\Documents/Untitled.wav",
        "incrementPath": true,
        "sampleRate": 44100,
        "depth": 16,
        "bitRate": 256000,
        "videoBitRate": 2048000
      },
      "pos": [
        31,
        1
      ]
    },
    {
      "id": 16,
      "plugin": "Fundamental",
      "version": "1.4.0",
      "model": "VCO",
      "params": [
        {
          "id": 0,
          "value": 0.0
        },
        {
          "id": 1,
          "value": 0.0
        },
        {
          "id": 2,
          "value": 50.5442963
        },
        {
          "id": 3,
          "value": 1.0
        },
        {
          "id": 4,
          "value": 0.0
        },
        {
          "id": 5,
          "value": 0.00999999978
        },
        {
          "id": 6,
          "value": 0.0
        }
      ],
      "pos": [
        25,
        0
      ]
    },
    {
      "id": 17,
      "plugin": "Fundamental",
      "version": "1.4.0",
      "model": "VCMixer",
      "params": [
        {
          "id": 0,
          "value": 1.0
        },
        {
          "id": 1,
          "value": 1.04793227
        },
        {
          "id": 2,
          "value": 0.0
        },
        {
          "id": 3,
          "value": 1.0
        },
        {
          "id": 4,
          "value": 1.0
        }
      ],
      "pos": [
        20,
        1
      ]
    },
    {
      "id": 18,
      "plugin": "Fundamental",
      "version": "1.4.0",
      "model": "ADSR",
      "params": [
        {
          "id": 0,
          "value": 0.0964999869
        },
        {
          "id": 1,
          "value": 0.597499967
        },
        {
          "id": 2,
          "value": 0.0
        },
        {
          "id": 3,
          "value": 0.606500149
        }
      ],
      "pos": [
        12,
        0
      ]
    },
    {
      "id": 19,
      "plugin": "Fundamental",
      "version": "1.4.0",
      "model": "VCF",
      "params": [
        {
          "id": 0,
          "value": 0.826999843
        },
        {
          "id": 1,
          "value": 0.0
        },
        {
          "id": 2,
          "value": 0.0
        },
        {
          "id": 3,
          "value": -0.0779998228
        },
        {
          "id": 4,
          "value": 0.0
        }
      ],
      "leftModuleId": 12,
      "pos": [
        54,
        0
      ]
    }
  ],
  "cables": [
    {
      "id": 24,
      "outputModuleId": 14,
      "outputId": 1,
      "inputModuleId": 10,
      "inputId": 0,
      "color": "#c9b70e"
    },
    {
      "id": 26,
      "outputModuleId": 14,
      "outputId": 0,
      "inputModuleId": 3,
      "inputId": 0,
      "color": "#c91847"
    },
    {
      "id": 27,
      "outputModuleId": 14,
      "outputId": 0,
      "inputModuleId": 16,
      "inputId": 0,
      "color": "#0986ad"
    },
    {
      "id": 29,
      "outputModuleId": 10,
      "outputId": 0,
      "inputModuleId": 17,
      "inputId": 2,
      "color": "#c91847"
    },
    {
      "id": 30,
      "outputModuleId": 10,
      "outputId": 1,
      "inputModuleId": 17,
      "inputId": 1,
      "color": "#0986ad"
    },
    {
      "id": 34,
      "outputModuleId": 17,
      "outputId": 0,
      "inputModuleId": 13,
      "inputId": 0,
      "color": "#0986ad"
    },
    {
      "id": 25,
      "outputModuleId": 14,
      "outputId": 1,
      "inputModuleId": 18,
      "inputId": 4,
      "color": "#0c8e15"
    },
    {
      "id": 36,
      "outputModuleId": 18,
      "outputId": 0,
      "inputModuleId": 10,
      "inputId": 3,
      "color": "#c9b70e"
    },
    {
      "id": 31,
      "outputModuleId": 3,
      "outputId": 0,
      "inputModuleId": 10,
      "inputId": 5,
      "color": "#c9b70e"
    },
    {
      "id": 28,
      "outputModuleId": 16,
      "outputId": 0,
      "inputModuleId": 10,
      "inputId": 2,
      "color": "#0c8e15"
    },
    {
      "id": 35,
      "outputModuleId": 17,
      "outputId": 0,
      "inputModuleId": 15,
      "inputId": 2,
      "color": "#c9b70e"
    },
    {
      "id": 37,
      "outputModuleId": 19,
      "outputId": 0,
      "inputModuleId": 12,
      "inputId": 0,
      "color": "#0c8e15"
    },
    {
      "id": 38,
      "outputModuleId": 19,
      "outputId": 0,
      "inputModuleId": 12,
      "inputId": 1,
      "color": "#c91847"
    },
    {
      "id": 39,
      "outputModuleId": 17,
      "outputId": 0,
      "inputModuleId": 19,
      "inputId": 3,
      "color": "#0986ad"
    }
  ]
}